<svg xmlns="http://www.w3.org/2000/svg" viewBox="0 0 128 128"><defs><linearGradient id="a" x2="1" y2="1"><stop stop-color="#91d6c8"/><stop offset="1" stop-color="#2d8776"/></linearGradient></defs><rect x="4" y="4" width="120" height="120" rx="30" fill="url(#a)"/><circle cx="64" cy="64" r="42" fill="#f9fffc"/><circle cx="64" cy="64" r="36" fill="none" stroke="#d2e8df" stroke-width="2"/><g stroke="#80a69b" stroke-width="2" stroke-linecap="round"><path d="M64 30v5m0 58v5M30 64h5m58 0h5M40 40l4 4m40 40l4 4m0-48-4 4m-40 40-4 4"/></g><path d="m82 42-10 32-28 12 10-32Z" fill="#253e3a"/><path d="m82 42-28 12 10 10Z" fill="#ef8b69"/><path d="m82 42-18 22 8 10Z" fill="#d9614c"/><circle cx="64" cy="64" r="4" fill="#f9fffc"/></svg>
